HIERARCHY
ROOT Hips
{
	OFFSET 0.00000 0.00000 0.00000
	CHANNELS 6 Xposition Yposition Zposition Yrotation Zrotation Xrotation 
	JOINT Lumbar
	{
		OFFSET 0 0 0
		CHANNELS 3 Zrotation Xrotation Yrotation
		JOINT Neck
		{
			OFFSET 0.00 0.2701 0.00
			CHANNELS 3 Zrotation Xrotation Yrotation
			End Site
			{
				OFFSET 0.00 0.1379 0.00
			}
		}
		JOINT RightShoulder
		{
			OFFSET 0.0119 0.2289 0.1181
			CHANNELS 3 Zrotation Xrotation Yrotation
			JOINT RightElbow
			{
				OFFSET 0.00 -0.1475 0.00
				CHANNELS 2 Zrotation Yrotation
				JOINT RightWrist
				{
					OFFSET 0.00 -0.1605 0.00
					CHANNELS 2 Zrotation Xrotation
					End Site
					{
						OFFSET 0.0040 -0.1068 0.0006
					}
				}
			}
		}
		JOINT LeftShoulder
		{
			OFFSET 0.0119 0.2289 -0.1181
			CHANNELS 3 Zrotation Xrotation Yrotation
			JOINT LeftElbow
			{
				OFFSET 0.00 -0.1475 0.00
				CHANNELS 2 Zrotation Yrotation
				JOINT LeftWrist
				{
					OFFSET 0.00 -0.1605 0.00
					CHANNELS 2 Zrotation Xrotation
					End Site
					{
						OFFSET 0.0040 -0.1068 -0.0006
					}
				}
			}
		}
	}
	JOINT RightHip
	{
		OFFSET 0.0316 -0.0424 0.0458
		CHANNELS 3 Zrotation Xrotation Yrotation
		JOINT RightKnee
		{
			OFFSET 0.00 -0.2438 0.00
			CHANNELS 1 Zrotation
			JOINT RightAnkle
			{
				OFFSET 0.00 -0.2449 0.00
				CHANNELS 3 Zrotation Xrotation Yrotation
				End Site
				{
					OFFSET 0.1237 -0.0542 0.0051
				}
			}
		}
	}
	JOINT LeftHip
	{
		OFFSET 0.0316 -0.0424 -0.0458
		CHANNELS 3 Zrotation Xrotation Yrotation
		JOINT LeftKnee
		{
			OFFSET 0.00 -0.2438 0.00
			CHANNELS 1 Zrotation
			JOINT LeftAnkle
			{
				OFFSET 0.00 -0.2449 0.00
				CHANNELS 3 Zrotation Xrotation Yrotation
				End Site
				{
					OFFSET 0.1237 -0.0542 -0.0051
				}
			}
		}
	}
}
MOTION
Frames: 19
Frame Time: 0.02
-0.00051 -0.00015 -1e-05 172.56628 -45.89456 0.57591 58.46742 0.51615 3.58227 -7.66792 -0.65709 -1.18583 117.33099 -83.01762 -87.14696 9.13846 100.67332 -5.51971 -11.09918 166.83682 80.42553 85.6432 5.78913 -70.62984 3.909 11.00923 50.72414 -0.27053 -12.32302 -19.27533 -7.46131 -3.79363 -4.10881 54.06924 1.0326 9.84346 -24.28132 -8.04307 3.91224 4.19693
-0.00036 -0.00018 0.00026 172.64989 -45.85056 0.5552 58.45004 0.50153 3.53063 -7.68737 -0.64599 -1.18658 114.97639 -83.03732 -87.1469 9.09946 100.3651 -6.48447 -10.81482 165.05065 80.44534 85.79147 5.78909 -70.13632 3.49935 11.11749 50.70071 -0.30132 -12.47832 -19.2999 -7.45793 -3.79052 -4.10783 54.03605 1.09551 10.18066 -24.28582 -8.00691 3.87748 4.17819
-0.00021 -0.0002 0.00054 172.73319 -45.80669 0.53451 58.43265 0.48697 3.47911 -7.70672 -0.6349 -1.18733 112.62817 -83.05689 -87.14684 9.06039 100.05548 -7.44579 -10.53161 163.2687 80.46516 85.93927 5.78906 -69.64401 3.09091 11.22539 50.67739 -0.33204 -12.63313 -19.32443 -7.45457 -3.78742 -4.10686 54.00296 1.1582 10.51686 -24.2903 -7.97085 3.84281 4.1595
-5e-05 -0.00022 0.00081 172.81654 -45.76282 0.51386 58.41531 0.4724 3.42762 -7.7261 -0.62384 -1.18808 110.28087 -83.07652 -87.14681 9.0215 99.74783 -8.40751 -10.24819 161.48794 80.48492 86.08708 5.78903 -69.15175 2.68256 11.33336 50.65404 -0.36274 -12.78795 -19.34892 -7.4512 -3.78432 -4.10588 53.96987 1.2209 10.85304 -24.29479 -7.9348 3.80815 4.14082
0.0001 -0.00024 0.00109 172.90022 -45.71883 0.49319 58.39802 0.45778 3.37602 -7.7456 -0.61276 -1.18883 107.927 -83.09631 -87.14672 8.9827 99.44244 -9.37284 -9.96345 159.70312 80.50468 86.23535 5.789 -68.65898 2.27291 11.44156 50.63056 -0.3935 -12.94329 -19.37343 -7.44783 -3.78122 -4.1049 53.93667 1.28383 11.19021 -24.2993 -7.89865 3.7734 4.12208
0.00025 -0.00026 0.00136 172.98269 -45.67521 0.47248 58.38043 0.44333 3.32467 -7.76463 -0.60164 -1.18958 105.59052 -83.11542 -87.14666 8.94305 99.12396 -10.32568 -9.68344 157.92716 80.52461 86.38219 5.78896 -68.16799 1.86698 11.54878 50.60759 -0.42413 -13.09699 -19.39802 -7.44448 -3.7781 -4.10393 53.90381 1.34602 11.52435 -24.30371 -7.8628 3.73892 4.10352
0.00041 -0.00028 0.00164 173.06753 -45.63088 0.45187 58.36345 0.42856 3.27288 -7.78457 -0.59064 -1.19033 103.22309 -83.13587 -87.14672 8.90528 98.83217 -11.30254 -9.3944 156.13621 80.54413 86.53172 5.78893 -67.67247 1.4543 11.65817 50.58361 -0.45499 -13.25375 -19.42241 -7.44108 -3.77503 -4.10296 53.8703 1.4096 11.86418 -24.30832 -7.82639 3.70393 4.08462
0.00056 -0.0003 0.00191 173.15013 -45.58723 0.43116 58.3459 0.41406 3.22147 -7.80369 -0.57951 -1.19108 100.88154 -83.15511 -87.14634 8.86556 98.51575 -12.25734 -9.11334 154.35751 80.56411 86.67879 5.7889 -67.18382 1.04732 11.765 50.56059 -0.48565 -13.40782 -19.44699 -7.43772 -3.7719 -4.10197 53.83743 1.47194 12.19885 -24.31275 -7.79049 3.66941 4.06603
0.00072 -0.00032 0.00219 173.23022 -45.54432 0.41033 58.32765 0.39998 3.17061 -7.82173 -0.56825 -1.19182 98.58106 -83.17275 -87.14675 8.82427 98.16876 -13.18516 -8.84337 152.59902 80.58434 86.82285 5.78887 -66.6926 0.64923 11.87094 50.53862 -0.51602 -13.55815 -19.47181 -7.43444 -3.76877 -4.10099 53.80516 1.53264 12.52703 -24.31693 -7.75519 3.63545 4.04781
0.00086 -0.00035 0.00247 173.32544 -45.49687 0.39023 58.31342 0.38375 3.11681 -7.84576 -0.55784 -1.19261 96.07256 -83.19925 -87.14659 8.79444 97.99622 -14.2682 -8.51359 150.73992 80.60223 86.98423 5.78882 -66.18321 0.20573 11.98877 50.51023 -0.54793 -13.72865 -19.49527 -7.43082 -3.76583 -4.10006 53.7689 1.60241 12.89201 -24.32246 -7.7164 3.59821 4.02745
0.00103 -0.00035 0.00273 173.38833 -45.45917 0.36857 58.29076 0.37191 3.06909 -7.85729 -0.54558 -1.1933 93.98514 -83.20727 -87.14508 8.73888 97.45682 -15.02372 -8.30743 149.08336 80.62561 87.10906 5.78881 -65.73326 -0.14557 12.07715 50.49564 -0.57666 -13.85745 -19.52157 -7.42785 -3.76239 -4.09897 53.74136 1.65327 13.17965 -24.32522 -7.68501 3.56794 4.01161
0.00124 -0.00031 0.00296 173.36493 -45.44703 0.34289 58.2441 0.37339 3.03903 -7.83313 -0.52864 -1.19365 93.20017 -83.16008 -87.14947 8.62569 95.89119 -14.87326 -8.46494 148.04607 80.65916 87.13272 5.78891 -65.26598 -0.2107 12.121 50.51731 -0.59587 -13.86344 -19.55625 -7.42731 -3.7584 -4.09792 53.73547 1.64987 13.25069 -24.31968 -7.67374 3.55671 4.00829
0.00146 -0.00025 0.00316 173.30858 -45.44486 0.31561 58.18902 0.37897 3.0147 -7.79677 -0.5098 -1.19395 92.80425 -83.09369 -87.14281 8.48499 93.96164 -14.39615 -8.74197 147.18597 80.69876 87.11983 5.78906 -64.88573 -0.18861 12.12941 50.55317 -0.61197 -13.82888 -19.59378 -7.42733 -3.75376 -4.09663 53.73871 1.62793 13.2448 -24.3115 -7.66993 3.55251 4.00949
0.00168 -0.0002 0.00337 173.26579 -45.43901 0.28891 58.13851 0.38193 2.98737 -7.7668 -0.49152 -1.19425 92.14259 -83.04089 -87.14502 8.34743 92.21027 -14.07208 -8.94842 146.2217 80.7393 87.12427 5.78916 -64.59131 -0.22912 12.12929 50.58359 -0.63011 -13.81867 -19.62953 -7.42666 -3.74886 -4.09514 53.7393 1.61598 13.27711 -24.30497 -7.66283 3.54515 4.00854
0.0019 -0.00014 0.00359 173.22911 -45.42985 0.26282 58.08532 0.38841 2.96254 -7.73285 -0.47437 -1.19446 91.8839 -82.97357 -87.16346 8.24624 90.4006 -13.72429 -9.22404 145.41682 80.76586 87.12568 5.78931 -63.7929 -0.17581 12.22963 50.6097 -0.64588 -13.78439 -19.66695 -7.4278 -3.74624 -4.09493 53.73376 1.59728 13.29601 -24.29647 -7.65535 3.53764 4.00802
0.00213 -9e-05 0.00379 173.17166 -45.42963 0.23509 58.03515 0.38813 2.93284 -7.70478 -0.45458 -1.1951 90.8446 -82.92432 -87.1047 8.06665 88.63052 -13.35308 -9.3836 144.24769 80.82097 87.12466 5.78944 -64.03329 -0.2931 12.11666 50.64826 -0.66549 -13.78938 -19.70203 -7.42536 -3.7388 -4.09204 53.74291 1.58837 13.32411 -24.29153 -7.65038 3.53212 4.00767
0.00237 -6e-05 0.00398 173.06662 -45.45436 0.20314 58.00025 0.37162 2.89681 -7.69137 -0.42678 -1.19479 87.84831 -82.98961 -87.19808 7.65068 87.02421 -12.95777 -9.19543 142.67891 80.9651 87.12635 5.78924 -67.39956 -0.94081 11.38527 50.71695 -0.69946 -13.92369 -19.72617 -7.41231 -3.71747 -4.08145 53.79248 1.61021 13.40101 -24.29648 -7.65094 3.5303 4.00651
0.00264 -5e-05 0.00416 172.94121 -45.48731 0.16964 57.9677 0.34751 2.85407 -7.68487 -0.39667 -1.19531 84.00471 -83.05894 -87.15601 7.16632 85.47819 -12.55674 -8.88581 140.62672 81.13185 87.12651 5.78937 -71.76169 -1.75772 10.44693 50.79801 -0.73686 -14.09695 -19.74872 -7.39572 -3.6914 -4.06821 53.85622 1.64274 13.48912 -24.30533 -7.65364 3.53027 4.00537
0.0029 -4e-05 0.00433 172.82438 -45.51458 0.13686 57.93099 0.32459 2.80881 -7.67849 -0.36832 -1.19685 80.34775 -83.09169 -86.926 6.72493 83.92571 -12.18539 -8.63057 138.35632 81.28527 87.12747 5.78911 -75.47808 -2.47025 9.62908 50.87366 -0.77067 -14.24507 -19.77423 -7.38123 -3.66804 -4.05644 53.91198 1.67091 13.56897 -24.31264 -7.65515 3.52948 4.00432
